<svg xmlns="http://www.w3.org/2000/svg">
  <path [attr.fill]="fill" fill-rule="evenodd" d="M474.51 71.35C475.69 74.32 475.69 77.29 475.69 79.66L488.76 87.38C496.48 67.79 515.48 54.72 536.85 54.72C558.82 54.72 577.23 67.79 584.95 86.19L596.83 79.66C596.83 76.69 597.42 74.32 598.01 71.35C600.98 60.66 608.7 52.94 615.23 54.72C621.17 55.91 624.14 66.6 621.17 77.29C621.17 77.88 620.58 77.88 620.58 78.47C621.17 78.47 621.17 78.47 621.76 78.47C632.45 81.44 640.17 89.16 638.39 95.1C636.61 101.63 626.51 104.01 615.23 101.04C612.26 100.44 609.89 99.26 607.51 98.07L589.11 108.76C588.51 119.44 584.95 128.95 579.01 136.66L599.79 148.54C602.17 147.35 604.54 146.17 607.51 145.57C618.8 142.6 628.89 145.57 630.67 151.51C632.45 158.04 624.73 165.17 613.45 168.14C613.45 168.73 612.86 168.73 612.86 168.73L612.86 169.32C615.83 180.6 613.45 190.7 606.92 192.48C600.98 194.26 593.26 186.54 590.29 175.26C589.7 172.29 589.11 169.92 589.11 166.95L574.86 158.63C574.26 179.42 557.64 195.45 536.85 195.45C516.07 195.45 499.44 178.82 498.85 158.63L484.01 167.54C483.41 169.92 483.41 172.29 482.82 175.26C479.85 186.54 472.13 194.26 465.6 192.48C459.66 190.7 456.69 180.01 459.66 169.32C459.66 168.73 459.66 168.73 460.26 168.73C459.66 168.14 459.66 168.14 459.07 168.14C448.38 165.17 440.66 158.04 442.44 151.51C444.22 144.98 454.32 142.6 465.6 145.57C467.97 146.17 470.94 147.35 473.32 148.54L494.69 136.07C489.35 128.95 485.79 119.44 485.19 109.94L465.01 98.07C462.63 99.26 460.26 100.44 457.29 101.04C446.6 104.01 435.91 101.63 434.13 95.1C432.94 89.16 440.07 81.44 451.35 78.47L451.94 78.47C451.94 77.88 451.94 77.88 451.94 77.29C448.97 66.6 451.35 55.91 457.88 54.13C464.41 52.94 471.54 60.07 474.51 71.35ZM514.29 88.57C503.6 88.57 495.29 96.88 495.29 106.98C495.29 117.66 503.6 125.98 514.29 125.98C524.38 125.98 532.7 117.66 532.7 106.98C532.7 96.88 524.38 88.57 514.29 88.57ZM560.01 88.57C549.32 88.57 541.01 96.88 541.01 106.98C541.01 117.66 549.32 125.98 560.01 125.98C570.11 125.98 578.42 117.66 578.42 106.98C578.42 96.88 570.11 88.57 560.01 88.57ZM526.17 141.41L546.95 141.41L536.26 126.57L526.17 141.41Z" />
</svg>
